<svg width="600" height="400" viewBox="0 0 600 400" xmlns="http://www.w3.org/2000/svg">
  <defs>
    <pattern id="grid_v10" width="20" height="20" patternUnits="userSpaceOnUse">
      <rect width="18" height="18" fill="#E2E8F0"/>
    </pattern>
  </defs>

  <rect width="100%" height="100%" fill="#FFFFFF"/>
  
  <g transform="translate(100, 120)">
     <!-- Pixel K -->
     <rect x="0" y="0" width="40" height="40" fill="#0075BF"/>
     <rect x="0" y="40" width="40" height="40" fill="#0075BF"/>
     <rect x="0" y="80" width="40" height="40" fill="#0075BF"/>
     <rect x="0" y="120" width="40" height="40" fill="#0075BF"/>
     <rect x="0" y="160" width="40" height="40" fill="#0075BF"/>
     
     <rect x="40" y="80" width="40" height="40" fill="#38BDF8"/>
     <rect x="80" y="40" width="40" height="40" fill="#38BDF8"/>
     <rect x="120" y="0" width="40" height="40" fill="#38BDF8"/>
     
     <rect x="80" y="120" width="40" height="40" fill="#38BDF8"/>
     <rect x="120" y="160" width="40" height="40" fill="#38BDF8"/>
     
     <!-- Pixel V -->
     <rect x="180" y="0" width="40" height="40" fill="#0F172A"/>
     <rect x="180" y="40" width="40" height="40" fill="#0F172A"/>
     <rect x="180" y="80" width="40" height="40" fill="#0F172A"/>
     <rect x="220" y="120" width="40" height="40" fill="#0F172A"/>
     <rect x="260" y="160" width="40" height="40" fill="#0075BF"/> <!-- Base -->
     <rect x="300" y="120" width="40" height="40" fill="#0F172A"/>
     <rect x="340" y="80" width="40" height="40" fill="#0F172A"/>
     <rect x="340" y="40" width="40" height="40" fill="#0F172A"/>
     <rect x="340" y="0" width="40" height="40" fill="#0F172A"/>
  </g>
</svg>
